<svg width="123" height="123" viewBox="0 0 123 123" fill="none" xmlns="http://www.w3.org/2000/svg">
<rect width="122.7" height="122.443" rx="45" fill="#E59266"/>
<rect width="11.7194" height="29.2229" rx="5.85971" transform="matrix(0.835401 0.549641 -0.539556 0.84195 80.5801 70.8779)" fill="#FAD12B"/>
<rect x="17.5117" y="21.8164" width="57.27" height="74.7502" rx="8" fill="#F7F3E1"/>
<rect x="23.4141" y="27.7383" width="45.4652" height="62.9072" rx="3" fill="#E68E6D"/>
<path fill-rule="evenodd" clip-rule="evenodd" d="M59.014 56.0664C47.0114 50.7534 36.1659 54.5689 32.2435 57.1407C30.2104 73.2231 35.3052 77.2594 43.4324 80.8734C43.9866 81.0502 45.3068 81.9032 46.1533 83.9009C46.0613 82.0132 47.3669 81.096 48.0313 80.8734C59.014 76.8691 62.9365 68.6652 59.014 56.0664ZM53.4305 61.7223C53.7206 62.2437 53.7204 62.8636 53.7202 63.4386L53.7202 63.4809C53.7202 63.644 53.7072 63.8933 53.692 64.1842L53.692 64.1843C53.6524 64.94 53.5983 65.9758 53.7202 66.5043C53.9704 67.5891 56.2853 68.4678 57.1358 66.7739C57.8162 65.4188 57.4193 62.0954 57.1358 60.6031C55.8904 56.8523 52.1852 59.4838 53.4305 61.7223ZM53.9512 72.5426C55.1115 72.5426 56.0521 71.6058 56.0521 70.4502C56.0521 69.2946 55.1115 68.3578 53.9512 68.3578C52.7909 68.3578 51.8503 69.2946 51.8503 70.4502C51.8503 71.6058 52.7909 72.5426 53.9512 72.5426Z" fill="#4C3C33"/>
<path fill-rule="evenodd" clip-rule="evenodd" d="M31.3356 54.7669C35.7122 52.2711 47.699 48.613 60.6333 53.9464C63.6553 50.5068 60.6333 34.757 46.3319 40.6929C45.565 39.3301 46.0124 37.1307 46.3319 36.2014C46.5362 35.7891 46.8223 34.903 46.3319 34.6573C45.7189 34.3501 43.1193 34.3501 42.2821 35.4472C43.1382 36.6672 44.3287 40.0319 44.2321 40.1921C44.2235 40.2065 44.0765 40.1897 43.8194 40.1602C41.2113 39.8614 27.2698 38.2643 31.3356 54.7669ZM33.5801 45.0955C33.8728 43.9504 36.0072 41.6788 42.2035 41.7537C42.9059 42.6032 43.2279 43.0238 43.301 43.1279C40.9178 43.1696 35.6371 43.6214 33.5801 45.0955ZM45.5659 46.1276C38.0166 45.6386 34.1346 47.452 33.1372 48.4199V46.8861C37.5827 44.7377 42.507 44.5085 44.4134 44.6625C44.5168 44.6882 44.8919 45.0173 45.5659 46.1276ZM33.0684 51.4185C35.0962 50.2413 38.1471 48.6657 47.5856 49.0641L46.4266 47.5362C43.6014 47.4419 36.9745 47.7497 33.0684 49.7356V51.4185Z" fill="#FAD12B"/>
<path d="M101.529 87.6346C99.392 79.441 93.5142 79.8291 90.8425 81.0473C87.3089 78.7062 79.5163 73.5517 76.6151 71.6625C76.0508 67.1356 71.489 67.2309 70.3603 67.5326C69.8712 67.9647 68.4558 67.7126 67.8092 67.5326C67.9227 67.6477 67.6809 67.5611 65.8049 66.2938C63.929 65.0266 64.6727 63.1012 65.2791 62.2969C67.3326 59.0978 71.6266 52.3838 72.3746 51.1208C73.1225 49.8577 74.6945 50.0799 75.387 50.3489C75.537 50.4425 76.1557 50.784 77.43 51.4015C78.7042 52.019 78.9074 53.296 78.8497 53.8574C79.2375 58.6009 83.6627 58.5015 86.1092 58.5015C89.3805 60.6172 97.1887 65.8487 102.251 69.8491C107.576 75.3903 106.606 84.0251 105.537 87.0932C104.468 90.1613 101.975 89.304 101.529 87.6346Z" fill="#4C3C33"/>
</svg>
